<svg width="16" height="13" viewBox="0 0 16 13" fill="none" xmlns="http://www.w3.org/2000/svg">
<path d="M2.18337 9.15527e-05H13.8166C14.4421 0.0113764 14.9595 0.222965 15.3689 0.634857C15.7783 1.04675 15.9886 1.55738 16 2.16676V10.8334C15.9886 11.4428 15.7783 11.9534 15.3689 12.3653C14.9595 12.7772 14.4421 12.9888 13.8166 13.0001H2.18337C1.55792 12.9888 1.04051 12.7772 0.63113 12.3653C0.221748 11.9534 0.0113717 11.4428 0 10.8334V2.16676C0.0113717 1.55738 0.221748 1.04675 0.63113 0.634857C1.04051 0.222965 1.55792 0.0113764 2.18337 9.15527e-05ZM14.4648 1.84514C14.408 1.72101 14.3227 1.62509 14.209 1.55738C14.0952 1.48967 13.9645 1.45018 13.8166 1.43889H2.18337C2.03554 1.45018 1.90476 1.48967 1.79104 1.55738C1.67733 1.62509 1.59204 1.72101 1.53518 1.84514L8 6.34775L14.4648 1.84514ZM14.5501 3.55478L8.40938 7.8204C8.28429 7.8994 8.14783 7.93889 8 7.93889C7.85217 7.93889 7.71571 7.8994 7.59062 7.8204L1.44989 3.55478V10.8334C1.44989 11.0365 1.52097 11.2058 1.66311 11.3412C1.80526 11.4767 1.97868 11.55 2.18337 11.5613H13.8166C14.0213 11.55 14.1947 11.4767 14.3369 11.3412C14.479 11.2058 14.5501 11.0365 14.5501 10.8334V3.55478Z" fill="currentColor"/>
</svg>
