<svg width="16" height="12" viewBox="0 0 16 12" fill="none" xmlns="http://www.w3.org/2000/svg">
<path d="M16.0002 0.66687H4.66687V2.0002H16.0002V0.66687Z" fill="currentColor"/>
<path d="M16.0002 5.33313H4.66687V6.66647H16.0002V5.33313Z" fill="currentColor"/>
<path d="M16.0002 10H4.66687V11.3333H16.0002V10Z" fill="currentColor"/>
<path d="M1.33333 2.66666C2.06971 2.66666 2.66667 2.06971 2.66667 1.33333C2.66667 0.596953 2.06971 0 1.33333 0C0.596954 0 0 0.596953 0 1.33333C0 2.06971 0.596954 2.66666 1.33333 2.66666Z" fill="currentColor"/>
<path d="M1.33333 7.33353C2.06971 7.33353 2.66667 6.73658 2.66667 6.0002C2.66667 5.26382 2.06971 4.66687 1.33333 4.66687C0.596954 4.66687 0 5.26382 0 6.0002C0 6.73658 0.596954 7.33353 1.33333 7.33353Z" fill="currentColor"/>
<path d="M1.33333 11.9998C2.06971 11.9998 2.66667 11.4028 2.66667 10.6665C2.66667 9.93008 2.06971 9.33313 1.33333 9.33313C0.596954 9.33313 0 9.93008 0 10.6665C0 11.4028 0.596954 11.9998 1.33333 11.9998Z" fill="currentColor"/>
</svg>
